<svg width="35" height="35" viewBox="0 0 35 35" fill="none" xmlns="http://www.w3.org/2000/svg">
<mask id="mask0_2194_211" style="mask-type:luminance" maskUnits="userSpaceOnUse" x="5" y="5" width="25" height="25">
<path d="M30 5H5V30H30V5Z" fill="white"/>
</mask>
<g mask="url(#mask0_2194_211)">
<path d="M22.3112 5C22.3694 5 22.4276 5 22.4891 5C22.6318 6.76305 21.9588 8.0804 21.141 9.03438C20.3385 9.98178 19.2396 10.9006 17.4623 10.7612C17.3437 9.02341 18.0178 7.80376 18.8346 6.85197C19.592 5.96496 20.9807 5.17565 22.3112 5Z" fill="black"/>
<path d="M27.6917 23.3505C27.6917 23.3681 27.6917 23.3834 27.6917 23.3999C27.1921 24.9126 26.4797 26.2092 25.6103 27.4123C24.8166 28.5046 23.8439 29.9746 22.1072 29.9746C20.6065 29.9746 19.6097 29.0096 18.0717 28.9833C16.4448 28.9569 15.5501 29.7901 14.0626 29.9998C13.8924 29.9998 13.7222 29.9998 13.5554 29.9998C12.4631 29.8417 11.5816 28.9767 10.9394 28.1972C9.04567 25.894 7.58231 22.919 7.31006 19.1119C7.31006 18.7387 7.31006 18.3665 7.31006 17.9933C7.42533 15.2685 8.74927 13.0532 10.509 11.9796C11.4378 11.4087 12.7145 10.9224 14.1361 11.1397C14.7454 11.2341 15.3679 11.4427 15.9134 11.6491C16.4305 11.8478 17.0771 12.2002 17.6897 12.1815C18.1046 12.1695 18.5174 11.9532 18.9357 11.8006C20.1608 11.3582 21.3618 10.851 22.9448 11.0893C24.8473 11.3769 26.1976 12.2222 27.0319 13.5263C25.4225 14.5506 24.1502 16.0941 24.3676 18.7299C24.5607 21.1242 25.9528 22.5249 27.6917 23.3505Z" fill="black"/>
</g>
</svg>
