<svg width="512" height="512" viewBox="0 0 512 512" fill="none" xmlns="http://www.w3.org/2000/svg">
<circle cx="256" cy="256" r="192" fill="white"/>
<path d="M256 63.9999C253.1 63.9999 250.2 63.9999 247.4 64.1999L208.1 172.2H242.3C262.6 172.2 273.6 187.8 266.6 207L218.2 340H177.5L229.5 197.4H199L147 340H106.4L167.4 172L204.3 70.9999C163.316 82.4498 127.298 107.19 101.902 141.335C76.5068 175.479 63.1738 217.092 63.9979 259.637C64.8221 302.182 79.7565 343.248 106.455 376.384C133.154 409.519 170.104 432.846 211.5 442.7L247.2 344.7L310 172H385C405.3 172 416.3 187.7 409.3 206.9L366.8 323.8C364.859 328.416 361.649 332.388 357.543 335.256C353.437 338.123 348.603 339.768 343.6 340H289.6L250.4 447.8L256.1 447.9C307.022 447.9 355.858 427.671 391.865 391.664C427.871 355.657 448.1 306.821 448.1 255.9C448.1 204.978 427.871 156.142 391.865 120.135C355.858 84.1284 307.022 63.8999 256.1 63.8999L256 63.9999ZM341.6 197.3L298.8 314.7H329.4L372.2 197.3H341.6Z" fill="#0096D6"/>
</svg>
