<svg width="440" height="476" viewBox="0 0 440 476" fill="none" xmlns="http://www.w3.org/2000/svg">
<g clip-path="url(#clip0_2138_200)">
<path d="M93.67 324.26L109.55 476.05" stroke="#263238" stroke-width="2" stroke-miterlimit="10"/>
<path d="M106.73 444.91L99.67 437.45" stroke="#263238" stroke-width="2" stroke-miterlimit="10"/>
<path d="M101.82 439.69C101.807 438.547 101.55 437.421 101.065 436.386C100.581 435.351 99.8798 434.432 99.01 433.69C97.2 432.07 87.66 428.06 86.76 431.42C85.77 435.08 95.53 442.26 101.82 439.69Z" fill="#5998B4" stroke="#263238" stroke-miterlimit="10"/>
<path d="M101.82 439.69L92.74 434.03" stroke="#263238" stroke-width="0.5" stroke-miterlimit="10"/>
<path d="M108.5 461.88L101.45 454.42" stroke="#263238" stroke-width="2" stroke-miterlimit="10"/>
<path d="M103.59 456.66C103.577 455.517 103.32 454.391 102.835 453.356C102.351 452.321 101.65 451.401 100.78 450.66C98.97 449.04 89.43 445.03 88.53 448.39C87.54 452.05 97.3 459.22 103.59 456.66Z" fill="#5998B4" stroke="#263238" stroke-miterlimit="10"/>
<path d="M103.59 456.66L94.51 451" stroke="#263238" stroke-width="0.5" stroke-miterlimit="10"/>
<path d="M102.41 403.5L95.35 396.05" stroke="#263238" stroke-width="2" stroke-miterlimit="10"/>
<path d="M97.5 398.28C97.4874 397.137 97.23 396.01 96.7453 394.975C96.2606 393.94 95.5598 393.021 94.69 392.28C92.88 390.67 83.34 386.65 82.44 390.01C81.45 393.68 91.21 400.85 97.5 398.28Z" fill="#5998B4" stroke="#263238" stroke-miterlimit="10"/>
<path d="M97.5 398.28L88.42 392.63" stroke="#263238" stroke-width="0.5" stroke-miterlimit="10"/>
<path d="M104.18 420.47L97.12 413.02" stroke="#263238" stroke-width="2" stroke-miterlimit="10"/>
<path d="M99.27 415.25C99.2573 414.107 99 412.98 98.5153 411.945C98.0306 410.91 97.3297 409.991 96.46 409.25C94.65 407.63 85.11 403.62 84.21 406.98C83.22 410.64 93 417.82 99.27 415.25Z" fill="#5998B4" stroke="#263238" stroke-miterlimit="10"/>
<path d="M99.27 415.25L90.19 409.59" stroke="#263238" stroke-width="0.5" stroke-miterlimit="10"/>
<path d="M99.54 375.94L92.48 368.48" stroke="#263238" stroke-width="2" stroke-miterlimit="10"/>
<path d="M94.62 370.72C94.6074 369.577 94.35 368.451 93.8653 367.416C93.3806 366.381 92.6798 365.462 91.81 364.72C90 363.1 80.46 359.09 79.56 362.45C78.58 366.11 88.34 373.29 94.62 370.72Z" fill="#5998B4" stroke="#263238" stroke-miterlimit="10"/>
<path d="M94.62 370.72L85.54 365.06" stroke="#263238" stroke-width="0.5" stroke-miterlimit="10"/>
<path d="M96.65 348.26L89.59 340.8" stroke="#263238" stroke-width="2" stroke-miterlimit="10"/>
<path d="M91.73 343C91.7174 341.857 91.46 340.73 90.9753 339.695C90.4906 338.66 89.7898 337.741 88.92 337C87.11 335.38 77.58 331.37 76.67 334.73C75.69 338.43 85.45 345.6 91.73 343Z" fill="#5998B4" stroke="#263238" stroke-miterlimit="10"/>
<path d="M91.73 343.03L82.65 337.38" stroke="#263238" stroke-width="0.5" stroke-miterlimit="10"/>
<path d="M105.55 434.87L110.91 426.12" stroke="#263238" stroke-width="2" stroke-miterlimit="10"/>
<path d="M109.28 428.75C109.058 427.631 109.078 426.478 109.338 425.367C109.599 424.256 110.094 423.214 110.79 422.31C112.23 420.31 120.73 414.46 122.31 417.56C124 420.93 116 430 109.28 428.75Z" fill="#5998B4" stroke="#263238" stroke-miterlimit="10"/>
<path d="M109.28 428.75L117.45 420.93" stroke="#263238" stroke-width="0.5" stroke-miterlimit="10"/>
<path d="M100.89 390.22L106.25 381.47" stroke="#263238" stroke-width="2" stroke-miterlimit="10"/>
<path d="M104.62 384.09C104.399 382.973 104.42 381.821 104.68 380.712C104.941 379.603 105.435 378.563 106.13 377.66C107.57 375.66 116.07 369.8 117.65 372.9C119.37 376.27 111.3 385.31 104.62 384.09Z" fill="#5998B4" stroke="#263238" stroke-miterlimit="10"/>
<path d="M104.62 384.09L112.79 376.28" stroke="#263238" stroke-width="0.5" stroke-miterlimit="10"/>
<path d="M98.84 370.59L104.21 361.84" stroke="#263238" stroke-width="2" stroke-miterlimit="10"/>
<path d="M102.57 364.47C102.348 363.351 102.368 362.198 102.628 361.087C102.889 359.976 103.384 358.934 104.08 358.03C105.52 356.08 114.02 350.18 115.6 353.28C117.32 356.65 109.25 365.69 102.57 364.47Z" fill="#5998B4" stroke="#263238" stroke-miterlimit="10"/>
<path d="M102.57 364.47L110.74 356.66" stroke="#263238" stroke-width="0.5" stroke-miterlimit="10"/>
<path d="M95.84 341.83L101.2 333.08" stroke="#263238" stroke-width="2" stroke-miterlimit="10"/>
<path d="M99.57 335.7C99.3479 334.581 99.3678 333.427 99.6282 332.317C99.8887 331.206 100.384 330.164 101.08 329.26C102.52 327.31 111.02 321.41 112.6 324.51C114.32 327.88 106.25 336.92 99.57 335.7Z" fill="#5998B4" stroke="#263238" stroke-miterlimit="10"/>
<path d="M99.57 335.7L107.74 327.89" stroke="#263238" stroke-width="0.5" stroke-miterlimit="10"/>
<path d="M93.54 323.43C93.3194 322.312 93.34 321.161 93.6004 320.052C93.8608 318.943 94.355 317.903 95.05 317C96.49 315 104.99 309.14 106.57 312.24C108.29 315.61 100.22 324.65 93.54 323.43Z" fill="#5998B4" stroke="#263238" stroke-miterlimit="10"/>
<path d="M93.54 323.43L101.72 315.62" stroke="#263238" stroke-width="0.5" stroke-miterlimit="10"/>
<path d="M94 323.77C92.863 323.874 91.7169 323.733 90.6389 323.357C89.5609 322.981 88.5758 322.378 87.75 321.59C85.95 319.96 80.98 310.88 84.23 309.64C87.78 308.28 95.92 317.26 94 323.77Z" fill="#5998B4" stroke="#263238" stroke-miterlimit="10"/>
<path d="M94.02 323.77L87.1 314.82" stroke="#263238" stroke-width="0.5" stroke-miterlimit="10"/>
<path d="M134.74 344.81L121.61 476.05" stroke="#263238" stroke-width="2" stroke-miterlimit="10"/>
<path d="M122.68 465.56L117.31 456.81" stroke="#263238" stroke-width="2" stroke-miterlimit="10"/>
<path d="M119 459.44C119.221 458.32 119.199 457.166 118.937 456.056C118.675 454.945 118.178 453.903 117.48 453C116.04 451.05 107.54 445.16 105.96 448.26C104.19 451.63 112.27 460.66 119 459.44Z" fill="#5998B4" stroke="#263238" stroke-miterlimit="10"/>
<path d="M118.95 459.44L111.23 452.03" stroke="#263238" stroke-width="0.5" stroke-miterlimit="10"/>
<path d="M126.98 424.15L121.61 415.4" stroke="#263238" stroke-width="2" stroke-miterlimit="10"/>
<path d="M123.24 418C123.462 416.881 123.442 415.727 123.182 414.617C122.921 413.506 122.426 412.464 121.73 411.56C120.29 409.61 111.78 403.72 110.21 406.82C108.49 410.22 116.56 419.25 123.24 418Z" fill="#5998B4" stroke="#263238" stroke-miterlimit="10"/>
<path d="M123.24 418.03L115.53 410.63" stroke="#263238" stroke-width="0.5" stroke-miterlimit="10"/>
<path d="M125.22 441.12L119.84 432.37" stroke="#263238" stroke-width="2" stroke-miterlimit="10"/>
<path d="M121.48 435C121.702 433.881 121.682 432.727 121.422 431.617C121.161 430.506 120.666 429.464 119.97 428.56C118.53 426.61 110.02 420.72 108.44 423.82C106.73 427.19 114.8 436.22 121.48 435Z" fill="#5998B4" stroke="#263238" stroke-miterlimit="10"/>
<path d="M121.48 435L113.76 427.6" stroke="#263238" stroke-width="0.5" stroke-miterlimit="10"/>
<path d="M129.84 396.59L124.47 387.84" stroke="#263238" stroke-width="2" stroke-miterlimit="10"/>
<path d="M126.1 390.47C126.322 389.351 126.302 388.197 126.042 387.087C125.781 385.976 125.286 384.934 124.59 384.03C123.15 382.03 114.59 376.18 113.07 379.28C111.35 382.65 119.42 391.68 126.1 390.47Z" fill="#5998B4" stroke="#263238" stroke-miterlimit="10"/>
<path d="M126.1 390.47L118.39 383.06" stroke="#263238" stroke-width="0.5" stroke-miterlimit="10"/>
<path d="M132.71 368.9L127.34 360.15" stroke="#263238" stroke-width="2" stroke-miterlimit="10"/>
<path d="M129 362.78C129.221 361.66 129.199 360.506 128.937 359.395C128.675 358.285 128.178 357.243 127.48 356.34C126.04 354.39 117.54 348.5 115.96 351.6C114.22 355 122.3 364 129 362.78Z" fill="#5998B4" stroke="#263238" stroke-miterlimit="10"/>
<path d="M128.98 362.78L121.26 355.38" stroke="#263238" stroke-width="0.5" stroke-miterlimit="10"/>
<path d="M123.59 455.49L130.64 448.03" stroke="#263238" stroke-width="2" stroke-miterlimit="10"/>
<path d="M128.5 450.27C128.511 449.128 128.767 448.002 129.25 446.967C129.733 445.932 130.432 445.012 131.3 444.27C133.11 442.65 142.65 438.63 143.56 441.99C144.54 445.65 134.79 452.83 128.5 450.27Z" fill="#5998B4" stroke="#263238" stroke-miterlimit="10"/>
<path d="M128.5 450.27L138.11 444.31" stroke="#263238" stroke-width="0.5" stroke-miterlimit="10"/>
<path d="M128.22 410.84L135.28 403.38" stroke="#263238" stroke-width="2" stroke-miterlimit="10"/>
<path d="M133.13 405.61C133.143 404.467 133.4 403.341 133.885 402.306C134.369 401.271 135.07 400.352 135.94 399.61C137.75 397.99 147.28 393.98 148.19 397.33C149.18 401 139.42 408.18 133.13 405.61Z" fill="#5998B4" stroke="#263238" stroke-miterlimit="10"/>
<path d="M133.13 405.61L142.74 399.65" stroke="#263238" stroke-width="0.5" stroke-miterlimit="10"/>
<path d="M130.26 391.21L137.31 383.75" stroke="#263238" stroke-width="2" stroke-miterlimit="10"/>
<path d="M135.17 386C135.181 384.858 135.437 383.732 135.92 382.697C136.403 381.662 137.102 380.742 137.97 380C139.78 378.38 149.32 374.36 150.23 377.72C151.21 381.37 141.46 388.55 135.17 386Z" fill="#5998B4" stroke="#263238" stroke-miterlimit="10"/>
<path d="M135.17 385.99L144.78 380.03" stroke="#263238" stroke-width="0.5" stroke-miterlimit="10"/>
<path d="M133.24 362.44L140.3 354.98" stroke="#263238" stroke-width="2" stroke-miterlimit="10"/>
<path d="M138.15 357.22C138.163 356.077 138.42 354.95 138.905 353.915C139.389 352.88 140.09 351.961 140.96 351.22C142.77 349.6 152.3 345.58 153.21 348.94C154.2 352.6 144.44 359.78 138.15 357.22Z" fill="#5998B4" stroke="#263238" stroke-miterlimit="10"/>
<path d="M138.15 357.22L147.76 351.26" stroke="#263238" stroke-width="0.5" stroke-miterlimit="10"/>
<path d="M134.78 344C134.793 342.857 135.05 341.73 135.535 340.695C136.019 339.66 136.72 338.741 137.59 338C139.4 336.38 148.93 332.37 149.84 335.73C150.83 339.36 141.07 346.54 134.78 344Z" fill="#5998B4" stroke="#263238" stroke-miterlimit="10"/>
<path d="M134.78 343.97L144.39 338.01" stroke="#263238" stroke-width="0.5" stroke-miterlimit="10"/>
<path d="M135.18 344.4C134.047 344.266 132.956 343.892 131.98 343.302C131.004 342.712 130.165 341.921 129.52 340.98C128.09 338.98 125.1 329.11 128.52 328.56C132.27 328 138.39 338.42 135.18 344.4Z" fill="#5998B4" stroke="#263238" stroke-miterlimit="10"/>
<path d="M135.18 344.4L130.25 334.22" stroke="#263238" stroke-width="0.5" stroke-miterlimit="10"/>
<path d="M117 284.05L116.03 476.28" stroke="#263238" stroke-width="2" stroke-miterlimit="10"/>
<path d="M117.15 444.37L110.9 436.22" stroke="#263238" stroke-width="2" stroke-miterlimit="10"/>
<path d="M112.8 438.66C112.904 437.525 112.763 436.382 112.389 435.306C112.015 434.23 111.415 433.246 110.63 432.42C109 430.62 99.93 425.64 98.68 428.88C97.32 432.42 106.28 440.56 112.8 438.66Z" fill="#5998B4" stroke="#263238" stroke-miterlimit="10"/>
<path d="M112.8 438.66L104.36 432.09" stroke="#263238" stroke-width="0.5" stroke-miterlimit="10"/>
<path d="M117.15 408.91L110.9 400.76" stroke="#263238" stroke-width="2" stroke-miterlimit="10"/>
<path d="M112.8 403.2C112.904 402.065 112.763 400.922 112.389 399.846C112.015 398.77 111.415 397.786 110.63 396.96C109 395.16 99.93 390.18 98.68 393.43C97.32 397 106.28 405.1 112.8 403.2Z" fill="#5998B4" stroke="#263238" stroke-miterlimit="10"/>
<path d="M112.8 403.2L104.36 396.63" stroke="#263238" stroke-width="0.5" stroke-miterlimit="10"/>
<path d="M117.15 367.28L110.9 359.13" stroke="#263238" stroke-width="2" stroke-miterlimit="10"/>
<path d="M112.8 361.57C112.904 360.435 112.763 359.292 112.389 358.216C112.015 357.139 111.415 356.156 110.63 355.33C109 353.53 99.93 348.55 98.68 351.8C97.32 355.33 106.28 363.47 112.8 361.57Z" fill="#5998B4" stroke="#263238" stroke-miterlimit="10"/>
<path d="M112.8 361.57L104.36 355" stroke="#263238" stroke-width="0.5" stroke-miterlimit="10"/>
<path d="M117.15 339.56L110.9 331.42" stroke="#263238" stroke-width="2" stroke-miterlimit="10"/>
<path d="M112.8 333.86C112.905 332.724 112.766 331.578 112.391 330.5C112.017 329.422 111.417 328.437 110.63 327.61C109 325.82 99.93 320.84 98.68 324.08C97.32 327.61 106.28 335.76 112.8 333.86Z" fill="#5998B4" stroke="#263238" stroke-miterlimit="10"/>
<path d="M112.8 333.86L104.36 327.29" stroke="#263238" stroke-width="0.5" stroke-miterlimit="10"/>
<path d="M117.15 311.73L110.9 303.58" stroke="#263238" stroke-width="2" stroke-miterlimit="10"/>
<path d="M112.8 306C112.905 304.864 112.766 303.718 112.391 302.64C112.017 301.562 111.417 300.577 110.63 299.75C109 297.95 99.93 292.97 98.68 296.22C97.32 299.78 106.28 307.93 112.8 306Z" fill="#5998B4" stroke="#263238" stroke-miterlimit="10"/>
<path d="M112.8 306.03L104.36 299.46" stroke="#263238" stroke-width="0.5" stroke-miterlimit="10"/>
<path d="M117.01 455.19L123.26 447.05" stroke="#263238" stroke-width="2" stroke-miterlimit="10"/>
<path d="M121.36 449.49C121.255 448.354 121.394 447.208 121.769 446.13C122.143 445.052 122.743 444.067 123.53 443.24C125.16 441.45 134.23 436.47 135.48 439.71C136.84 443.24 127.87 451.39 121.36 449.49Z" fill="#5998B4" stroke="#263238" stroke-miterlimit="10"/>
<path d="M121.36 449.49L130.3 442.57" stroke="#263238" stroke-width="0.5" stroke-miterlimit="10"/>
<path d="M117.01 398.8L123.26 390.65" stroke="#263238" stroke-width="2" stroke-miterlimit="10"/>
<path d="M121.36 393.1C121.255 391.964 121.394 390.818 121.769 389.74C122.143 388.662 122.743 387.677 123.53 386.85C125.16 385.05 134.23 380.07 135.48 383.32C136.84 386.85 127.87 395 121.36 393.1Z" fill="#5998B4" stroke="#263238" stroke-miterlimit="10"/>
<path d="M121.36 393.1L130.3 386.17" stroke="#263238" stroke-width="0.5" stroke-miterlimit="10"/>
<path d="M117.01 370.96L123.26 362.82" stroke="#263238" stroke-width="2" stroke-miterlimit="10"/>
<path d="M121.36 365.26C121.255 364.124 121.394 362.978 121.769 361.9C122.143 360.822 122.743 359.837 123.53 359.01C125.16 357.22 134.23 352.24 135.48 355.48C136.84 359 127.87 367.16 121.36 365.26Z" fill="#5998B4" stroke="#263238" stroke-miterlimit="10"/>
<path d="M121.36 365.26L130.3 358.34" stroke="#263238" stroke-width="0.5" stroke-miterlimit="10"/>
<path d="M117.01 334.17L123.26 326.03" stroke="#263238" stroke-width="2" stroke-miterlimit="10"/>
<path d="M121.36 328.47C121.255 327.334 121.394 326.188 121.769 325.11C122.143 324.032 122.743 323.047 123.53 322.22C125.16 320.43 134.23 315.45 135.48 318.69C136.84 322.22 127.87 330.37 121.36 328.47Z" fill="#5998B4" stroke="#263238" stroke-miterlimit="10"/>
<path d="M121.36 328.47L130.3 321.55" stroke="#263238" stroke-width="0.5" stroke-miterlimit="10"/>
<path d="M117.01 305.25L123.26 297.1" stroke="#263238" stroke-width="2" stroke-miterlimit="10"/>
<path d="M121.36 299.55C121.255 298.414 121.394 297.268 121.769 296.19C122.143 295.112 122.743 294.127 123.53 293.3C125.16 291.5 134.23 286.52 135.48 289.77C136.84 293.3 127.87 301.45 121.36 299.55Z" fill="#5998B4" stroke="#263238" stroke-miterlimit="10"/>
<path d="M121.36 299.55L130.3 292.63" stroke="#263238" stroke-width="0.5" stroke-miterlimit="10"/>
<path d="M116.64 286.72C116.535 285.584 116.674 284.438 117.049 283.36C117.423 282.282 118.023 281.297 118.81 280.47C120.44 278.67 129.51 273.7 130.76 276.94C132.12 280.47 123.15 288.62 116.64 286.72Z" fill="#5998B4" stroke="#263238" stroke-miterlimit="10"/>
<path d="M116.64 286.72L125.58 279.8" stroke="#263238" stroke-width="0.5" stroke-miterlimit="10"/>
<path d="M117.07 287.1C115.927 287.087 114.8 286.83 113.765 286.345C112.73 285.861 111.811 285.16 111.07 284.29C109.45 282.47 105.45 272.93 108.81 272.03C112.48 271.05 119.65 280.82 117.07 287.1Z" fill="#5998B4" stroke="#263238" stroke-miterlimit="10"/>
<path d="M117.07 287.1L111.13 277.49" stroke="#263238" stroke-width="0.5" stroke-miterlimit="10"/>
<path d="M371.04 476.25L365.26 409.62H228.41L220.85 476.25H371.04Z" fill="#263238" stroke="#263238" stroke-miterlimit="10"/>
<path d="M287.22 207.67C287.22 207.67 247.22 218.67 229.72 231.91C212.22 245.15 200.12 258.69 202.94 284.34C205.76 309.99 224.08 380.17 224.08 380.17C224.08 380.17 221.54 408.64 221.54 410.33C221.54 412.02 221.26 416.81 227.46 417.09C233.66 417.37 308.07 420.48 324.7 420.76C341.33 421.04 363.32 419.35 365.85 417.38C367.102 416.339 368.125 415.05 368.853 413.594C369.581 412.138 369.999 410.546 370.08 408.92C370.36 405.54 373.18 364.1 373.18 364.1L373.46 345.5C373.46 345.5 391.79 284.62 392.91 264.89C394.03 245.16 386.71 238.68 378.54 232.48C370.37 226.28 344.93 215.78 331.19 211.62C317.45 207.46 287.22 207.67 287.22 207.67Z" fill="#5998B4" stroke="#263238" stroke-miterlimit="10"/>
<path d="M297.09 302.27C295.09 329.72 291.43 380.27 291.75 388.98C292.2 400.98 287.31 404.53 287.31 408.98" stroke="#263238" stroke-miterlimit="10"/>
<path d="M298.42 284.56C298.42 284.56 298.06 289.23 297.51 296.62" stroke="#263238" stroke-miterlimit="10"/>
<path d="M316.28 319.82L318.84 350.02L333.17 349L316.28 319.82Z" fill="#263238" stroke="#263238" stroke-miterlimit="10"/>
<path d="M302.7 372.48C302.7 372.48 337.7 366.98 340.33 367.56C342.96 368.14 360.88 376.82 363.49 377.4C365.188 377.802 366.837 378.385 368.41 379.14L372.34 382.43L371 372.48C371 372.48 365.79 366.11 354.21 361.48C342.63 356.85 336.84 359.48 334.21 360.33C331.58 361.18 302.7 372.48 302.7 372.48Z" fill="#263238" stroke="#263238" stroke-miterlimit="10"/>
<path d="M248.88 346.07L339.88 345.78C339.88 345.78 369.2 342.97 370.32 342.68C371.44 342.39 383.01 345.5 384.14 346.35C385.27 347.2 385.26 349.73 384.7 352.27L384.14 354.8C384.553 356.944 384.833 359.111 384.98 361.29C384.98 363.29 382.73 363.82 382.44 364.67C382.15 365.52 384.14 368.61 381.88 370.59L379.63 372.59C379.63 372.59 379.34 377.95 378.22 379.36C377.1 380.77 373.71 383.3 372.3 382.46C370.89 381.62 371.45 379.36 371.45 377.95C371.45 376.54 370.89 375.13 369.2 375.13C367.51 375.13 367.2 376.54 358.49 374.28C349.78 372.02 340.17 364.42 339.32 364.13C338.47 363.84 262.09 384.43 239.54 387.25C216.99 390.07 215.02 386.97 214.17 383.25C213.32 379.53 211.92 370.85 211.92 370.85L207.92 353.66L248.88 346.07Z" fill="white" stroke="#263238" stroke-miterlimit="10"/>
<path d="M308.05 240.71C308.05 240.71 312.76 235.71 315.73 237.98C318.7 240.25 321.42 252.09 325.13 251.1C328.84 250.11 336.27 227.1 336.27 217.94C336.27 208.78 329.83 203.34 328.35 202.84C326.87 202.34 289 201.84 284.54 203.59C280.08 205.34 278.36 220.91 276.63 230.31C274.9 239.71 278.85 241.94 281.33 240.71C283.81 239.48 293.45 235.51 295.68 235.51C297.91 235.51 308.05 240.71 308.05 240.71Z" fill="#5998B4" stroke="#263238" stroke-miterlimit="10"/>
<path d="M333.4 188.54C333.4 188.54 329.85 206.08 328.47 210.41C327.09 214.74 317.04 227.95 314.47 230.71C311.9 233.47 304.42 247.06 302.47 247.46C300.52 247.86 295 229.33 295 229.33C295 229.33 287.9 217.11 286.52 213.96C285.14 210.81 283 201.55 283 201.55C283 201.55 294.62 211.55 307 209.43C319.38 207.31 325.71 194.85 325.71 194.85L333.4 188.54Z" fill="white" stroke="#263238" stroke-miterlimit="10"/>
<path d="M285.29 153.6C285.29 153.6 281.82 149.88 279.84 155.6C277.86 161.32 281.84 171.43 281.84 171.43L285.29 153.6Z" fill="white" stroke="#263238" stroke-miterlimit="10"/>
<path d="M285.91 142C285.91 142 280.2 182.59 280.2 185C280.2 187.41 278.62 195.24 280.99 200.37C283.36 205.5 290.44 211.79 296.16 212.58C301.88 213.37 313.1 212.19 319.41 207.26C325.72 202.33 333 191.7 333 191.7C333 191.7 340.89 190.51 346 188.35C351.11 186.19 355.06 181.25 354.87 176.13C354.643 172.852 353.48 169.707 351.52 167.07L348.52 161.55L356.4 146.77C356.4 146.77 351.87 138.3 337.29 130.22C322.71 122.14 309.7 119.58 303.6 119.58C297.5 119.58 289.8 122.14 287.6 127.07C285.4 132 285.91 142 285.91 142Z" fill="white" stroke="#263238" stroke-miterlimit="10"/>
<path d="M304.63 122.14C304.63 122.14 315.86 140.66 324.34 139.88C332.82 139.1 335.34 135.15 335.34 135.15L341.05 142.83C341.05 142.83 334.95 145.39 336.13 148.55C337.31 151.71 342.63 158.79 342.63 158.79L338.29 177.31C338.29 177.31 341.64 177.9 342.24 176.72C342.84 175.54 345.78 168.25 345.78 168.25C346.575 167.74 347.436 167.343 348.34 167.07C349.382 166.846 350.459 166.846 351.5 167.07C351.5 167.07 353.66 159.78 354.5 159.58C355.34 159.38 363.17 157.21 366.13 149.53C369.09 141.85 364.55 129.63 354.3 119.98C344.05 110.33 322.38 107.76 321.2 105.98C320.02 104.2 326.72 106.76 325.34 102.82C323.96 98.8799 315.29 93.7599 304.26 99.2799C293.23 104.8 294.8 110.9 295.98 112.87L297.16 114.87C297.16 114.87 287.9 111.72 281.4 115.66C274.9 119.6 271.75 127.48 274.7 128.27C277.65 129.06 281.4 127.27 281.4 127.27C281.4 127.27 277.46 133.77 278.64 135.15C279.82 136.53 285.93 142.04 285.93 142.04C285.93 142.04 288.3 128.25 293.22 126.28C298.14 124.31 304.63 122.14 304.63 122.14Z" fill="#263238" stroke="#263238" stroke-miterlimit="10"/>
<path d="M301.08 148.74L302.86 154.46L292.81 173.37L303.45 177.51" stroke="#263238" stroke-miterlimit="10"/>
<path d="M299.11 146.57C299.11 146.57 294.39 142.83 290.44 143.82C286.49 144.81 288.87 145.39 291.63 146.38C294.39 147.37 299.9 149.92 299.11 146.57Z" fill="#263238" stroke="#263238" stroke-miterlimit="10"/>
<path d="M313.7 145.79C313.7 145.79 309.16 146.97 311.33 147.95C313.5 148.93 320 146.95 322.56 147.95C325.12 148.95 328.47 152.29 328.28 150.71C327.989 149.351 327.349 148.091 326.423 147.055C325.497 146.019 324.318 145.242 323 144.8C319.41 143.62 313.7 145.79 313.7 145.79Z" fill="#263238" stroke="#263238" stroke-miterlimit="10"/>
<path d="M296.51 155.32C296.16 156.75 295.2 157.74 294.35 157.53C293.5 157.32 293.1 156.01 293.44 154.58C293.78 153.15 294.76 152.16 295.6 152.36C296.44 152.56 296.85 153.89 296.51 155.32Z" fill="#263238"/>
<path d="M318 160.94C317.65 162.36 316.68 163.35 315.84 163.15C315 162.95 314.59 161.62 314.93 160.15C315.27 158.68 316.24 157.73 317.09 157.94C317.94 158.15 318.33 159.51 318 160.94Z" fill="#263238"/>
<path d="M286.7 179.87L294.78 185.19" stroke="#263238" stroke-miterlimit="10"/>
<path d="M369.8 227.68C369.8 227.68 397.7 238.4 403.06 254.46C408.42 270.52 401.65 290.82 398.83 299.28C396.01 307.74 378.54 340.71 375.72 348.6C372.9 356.49 368.67 366.08 368.67 366.08C368.67 366.08 364.73 342.4 354 327.75C343.27 313.1 340.75 299.84 340.75 299.84C340.75 299.84 360.2 265.45 365.27 254.74" fill="#5998B4"/>
<path d="M369.8 227.68C369.8 227.68 397.7 238.4 403.06 254.46C408.42 270.52 401.65 290.82 398.83 299.28C396.01 307.74 378.54 340.71 375.72 348.6C372.9 356.49 368.67 366.08 368.67 366.08C368.67 366.08 364.73 342.4 354 327.75C343.27 313.1 340.75 299.84 340.75 299.84C340.75 299.84 360.2 265.45 365.27 254.74" stroke="#263238" stroke-miterlimit="10"/>
<path d="M343.73 293.88C343.73 293.88 349.44 291.03 351.34 291.98C353.24 292.93 377.67 305.98 380.84 320.85C383.129 332.036 381.564 343.667 376.4 353.85C373.54 359.25 368.15 369.71 364.03 370.98C359.91 372.25 356.41 338.31 347.85 320.55C339.29 302.79 343.73 293.88 343.73 293.88Z" fill="#5998B4" stroke="#263238" stroke-miterlimit="10"/>
<path d="M353.17 277.57C353.17 277.57 358.24 260.38 360.22 253.62" stroke="#263238" stroke-miterlimit="10"/>
<path d="M302.27 216.52C302.27 216.52 294.39 205.52 288.27 198.2C282.15 190.88 275.85 186.57 273.69 187.2C271.53 187.83 270.69 189.96 272.11 192.52C273.53 195.08 279.99 200.8 281.17 202.38C282.35 203.96 284.17 209.67 284.17 209.67C284.17 209.67 278.46 210.06 277.47 211.24C276.549 212.61 275.759 214.063 275.11 215.58C273.92 216.182 272.892 217.06 272.11 218.14C271.522 218.964 271.119 219.905 270.93 220.9C270.73 221.69 267.93 223.07 268.17 226.61C268.41 230.15 271.72 235.28 272.9 237.61C274.08 239.94 282.75 250.41 284.33 252.19C285.91 253.97 294.97 269.72 297.33 275.04C299.69 280.36 322.55 342.04 329.25 351.3C335.95 360.56 348.36 369.42 355.06 372.58C361.76 375.74 366.49 370.41 369.64 363.71C372.79 357.01 375.55 343.61 369.45 328.24C363.35 312.87 351.32 299.67 342.06 291.79C332.8 283.91 315.46 264.21 313.49 260.66C311.52 257.11 309 249.23 309 249.23C309 249.23 314.12 234.23 314.51 230.71C314.9 227.19 312.94 220.86 313.51 218.1C314.08 215.34 316.46 209.82 317.45 207.46C318.44 205.1 321.78 201.15 320.01 199.38C318.24 197.61 310.95 199.77 308.39 203.91C306.107 207.991 304.063 212.201 302.27 216.52Z" fill="white" stroke="#263238" stroke-miterlimit="10"/>
<path d="M241.37 259.19C241.96 256.06 242.37 253.9 242.37 253.9Z" fill="#5998B4"/>
<path d="M241.37 259.19C241.96 256.06 242.37 253.9 242.37 253.9" stroke="#263238" stroke-miterlimit="10"/>
<path d="M239.58 226.84C239.58 226.84 224.64 228.84 209.14 245.44C193.64 262.04 200.4 301.53 201.81 309.71C203.22 317.89 205.48 343 205.48 343L245.22 329.75C245.22 329.75 238.74 285.5 238.17 281.55C237.89 279.55 238.97 272.55 240.11 266.05" fill="#5998B4"/>
<path d="M239.58 226.84C239.58 226.84 224.64 228.84 209.14 245.44C193.64 262.04 200.4 301.53 201.81 309.71C203.22 317.89 205.48 343 205.48 343L245.22 329.75C245.22 329.75 238.74 285.5 238.17 281.55C237.89 279.55 238.97 272.55 240.11 266.05" stroke="#263238" stroke-miterlimit="10"/>
<path d="M201.53 334.23C201.53 334.23 205.48 355.37 207.45 356.49C209.42 357.61 240.14 349.17 243.53 348.6C246.92 348.03 248.88 348.88 248.88 346.07C248.88 343.26 246.06 330 244.37 327.75C242.68 325.5 206.04 330.28 202.94 331.13C199.84 331.98 201.53 334.23 201.53 334.23Z" fill="#5998B4" stroke="#263238" stroke-miterlimit="10"/>
<path d="M224 317.89C231.001 320.693 237.794 323.988 244.33 327.75C244.33 327.75 234.75 309.75 230.8 306.04" stroke="#263238" stroke-miterlimit="10"/>
<path d="M218.72 315.91C219.85 316.3 220.97 316.71 222.07 317.12" stroke="#263238" stroke-miterlimit="10"/>
<path d="M311.16 408.18C318.45 405.58 325.16 402.72 329.16 399.9" stroke="#263238" stroke-miterlimit="10"/>
<path d="M276.79 418.22C276.79 418.22 292.36 414.53 307.14 409.57" stroke="#263238" stroke-miterlimit="10"/>
<path d="M342.28 398.73C334.62 402.55 322.49 408.13 312.58 410.61" stroke="#263238" stroke-miterlimit="10"/>
<path d="M349.79 394.83C349.79 394.83 348.22 395.7 345.61 397.04" stroke="#263238" stroke-miterlimit="10"/>
<path d="M86.12 37.14C19.05 69.45 6.33 164.31 48.87 221.33C57.76 233.25 69.38 243.33 83.15 249.14C130.15 269.07 167.82 229.44 190.73 193.02C227.31 134.89 231.88 120.52 231.23 130.31C230.58 140.1 247.56 150.56 257.36 99C269.89 33 177.53 18 130.78 24.24C115.307 26.1616 100.235 30.5153 86.12 37.14Z" fill="#263238" stroke="#263238" stroke-miterlimit="10"/>
<path d="M251.687 157.124C255.62 150.022 255.355 142.351 251.093 139.991C246.832 137.631 240.189 141.475 236.256 148.577C232.322 155.679 232.588 163.35 236.849 165.71C241.11 168.07 247.753 164.226 251.687 157.124Z" fill="#263238" stroke="#263238" stroke-miterlimit="10"/>
<path d="M258.69 158.58C256.37 162.77 256.53 167.31 259.04 168.7C261.55 170.09 265.49 167.82 267.81 163.63C270.13 159.44 269.98 154.9 267.46 153.51C264.94 152.12 261 154.38 258.69 158.58Z" fill="#263238" stroke="#263238" stroke-miterlimit="10"/>
<path d="M90 31C22.91 63.27 10.19 158.13 52.73 215.15C61.62 227.07 73.25 237.15 87.01 242.96C134.01 262.89 171.68 223.26 194.59 186.84C231.17 128.71 235.75 114.34 235.09 124.13C234.43 133.92 251.42 144.38 261.22 92.78C273.75 26.78 181.39 11.78 134.64 18.02C119.169 19.9691 104.104 24.3497 90 31Z" fill="white" stroke="#263238" stroke-miterlimit="10"/>
<path d="M240.12 142.4C236.18 149.5 236.45 157.17 240.71 159.53C244.97 161.89 251.61 158.04 255.55 150.94C259.49 143.84 259.21 136.17 254.95 133.81C250.69 131.45 244.05 135.3 240.12 142.4Z" fill="white" stroke="#263238" stroke-miterlimit="10"/>
<path d="M262.56 152.4C260.23 156.6 260.39 161.13 262.91 162.52C265.43 163.91 269.35 161.65 271.67 157.45C273.99 153.25 273.84 148.72 271.32 147.33C268.8 145.94 264.88 148.2 262.56 152.4Z" fill="white" stroke="#263238" stroke-miterlimit="10"/>
<path d="M90.3268 129.002L71.0787 156.404C70.6922 156.955 70.4644 157.602 70.4201 158.274C70.3759 158.945 70.5168 159.616 70.8276 160.213C71.1385 160.81 71.6072 161.31 72.1828 161.659C72.7583 162.008 73.4186 162.192 74.0917 162.191L171.672 161.98C172.513 161.977 173.327 161.685 173.979 161.153C174.63 160.621 175.079 159.881 175.251 159.058L182.543 124.889L174.845 67.0501C174.58 65.0542 173.349 62.1563 169.983 62.0905L82.756 74.6874C82.2497 74.7503 81.762 74.9179 81.3239 75.1794C80.8857 75.441 80.5068 75.7908 80.2111 76.2066C79.9154 76.6224 79.7094 77.0951 79.6062 77.5948C79.503 78.0945 79.5048 78.6102 79.6115 79.1091L90.3268 129.002Z" fill="#263238"/>
<path d="M88.1746 127.12L68.9413 154.527C68.5549 155.079 68.3274 155.725 68.2834 156.397C68.2395 157.069 68.3809 157.74 68.6922 158.337C69.0034 158.933 69.4726 159.433 70.0486 159.782C70.6245 160.13 71.2851 160.314 71.9583 160.313L169.519 160.099C170.36 160.094 171.174 159.801 171.825 159.269C172.476 158.738 172.925 157.999 173.098 157.177L180.391 123.008L172.703 65.1878C172.58 64.2247 172.08 63.3497 171.313 62.7543C170.546 62.1588 169.575 61.8914 168.611 62.0105L80.5997 72.8073C80.0931 72.8689 79.605 73.0354 79.1664 73.2963C78.7278 73.5571 78.3484 73.9066 78.0524 74.3222C77.7564 74.7379 77.5503 75.2107 77.4473 75.7105C77.3442 76.2103 77.3465 76.7261 77.454 77.225L88.1746 127.12Z" fill="#F5F5F5"/>
<path d="M88.1745 127.12C88.1745 127.12 88.0946 126.783 87.9521 126.135C87.8095 125.487 87.5962 124.517 87.3213 123.253C86.769 120.717 85.9557 116.976 84.9144 112.175C83.8731 107.375 82.6028 101.484 81.1255 94.6562C80.3896 91.2393 79.6023 87.5942 78.7636 83.7209C78.3443 81.7842 77.914 79.7943 77.4729 77.7512C77.3306 77.2356 77.27 76.7009 77.2933 76.1666C77.3577 75.3348 77.6984 74.5484 78.2612 73.9325C78.824 73.3167 79.5766 72.9067 80.3993 72.7678L141.742 65.2171L159.472 63.0389L168.634 61.9273C169.439 61.8404 170.25 62.0137 170.949 62.4218C171.649 62.83 172.198 63.4515 172.519 64.1951C172.676 64.5652 172.777 64.9567 172.819 65.3568L172.975 66.5284C173.078 67.3054 173.18 68.0918 173.272 68.8768C174.946 81.4254 176.674 94.4132 178.444 107.718C179.143 112.963 179.834 118.156 180.481 123.024L176.606 141.158C175.974 144.134 175.344 147.086 174.717 150.013L173.785 154.387L173.318 156.557C173.26 156.928 173.179 157.296 173.076 157.658C172.954 158.016 172.777 158.354 172.553 158.66C172.099 159.269 171.474 159.73 170.758 159.984C170.403 160.107 170.031 160.176 169.656 160.19C169.283 160.2 168.923 160.194 168.558 160.198L164.218 160.207L155.668 160.23L139.131 160.269L82.2999 160.371L76.4077 160.38L73.5769 160.382L72.1838 160.375C71.9585 160.384 71.731 160.358 71.4951 160.348C71.2655 160.319 71.0385 160.273 70.8162 160.209C69.957 159.932 69.2251 159.358 68.7528 158.588C68.2804 157.819 68.0986 156.906 68.2404 156.015C68.2834 155.803 68.3397 155.594 68.409 155.389C68.4795 155.189 68.5682 154.997 68.6739 154.813C68.8859 154.437 69.1417 154.115 69.3734 153.773L70.7696 151.784L80.1651 138.441L86.0913 130.034L87.6374 127.854C87.9821 127.36 88.1679 127.113 88.1679 127.113L87.6563 127.857L86.114 130.049L80.2212 138.477L70.8508 151.856L69.4558 153.85C69.2228 154.188 68.9615 154.521 68.7619 154.879C68.6573 155.06 68.5674 155.248 68.4931 155.443C68.4258 155.64 68.3732 155.842 68.3356 156.048C68.1992 156.907 68.375 157.788 68.8313 158.529C69.2876 159.271 69.9942 159.825 70.8233 160.091C71.0373 160.151 71.2559 160.194 71.4768 160.219C71.7005 160.233 71.9348 160.253 72.1534 160.251L73.5423 160.258L76.3772 160.255L82.2669 160.238L139.1 160.086L155.636 160.044L164.185 160.021L168.519 159.991C169.236 160.05 169.958 159.982 170.652 159.79C171.325 159.548 171.913 159.113 172.34 158.539C172.553 158.252 172.72 157.933 172.837 157.595C172.944 157.246 173.03 156.892 173.096 156.533L173.598 154.361C173.908 152.91 174.218 151.452 174.53 149.987C175.152 147.062 175.781 144.11 176.419 141.132L180.288 122.995L180.299 123.028C179.652 118.16 178.957 112.968 178.262 107.722L173.095 68.8836L172.797 66.5311L172.645 65.3582C172.605 64.9782 172.51 64.6061 172.363 64.2534C172.058 63.5512 171.536 62.9652 170.873 62.5816C170.211 62.198 169.443 62.037 168.682 62.1222L159.52 63.2338L141.788 65.4039L80.4454 72.9277C79.654 73.0586 78.9292 73.4508 78.3867 74.0417C77.8441 74.6326 77.5151 75.3881 77.4521 76.1879C77.429 76.7077 77.4881 77.2279 77.627 77.7293C78.0635 79.7768 78.4919 81.7702 78.9121 83.7096C79.7409 87.5846 80.5256 91.2499 81.2563 94.6595C82.7173 101.492 83.9782 107.382 85.018 112.192C86.0578 117.002 86.8294 120.739 87.3804 123.27C87.6487 124.527 87.8525 125.496 87.991 126.145C88.1295 126.795 88.1745 127.12 88.1745 127.12Z" fill="#263238"/>
<path d="M91.6951 128.591L78.807 146.555L169.106 145.089L175.135 124.815L91.6951 128.591Z" fill="#263238"/>
<path d="M109.068 147.606L102.902 157.941L126.206 157.688L131.078 147.28L109.068 147.606Z" fill="#E0E0E0"/>
<path d="M165.715 134.493C170.832 134.309 173.84 134.188 173.835 134.158C173.83 134.129 170.85 134.209 165.77 134.355C166.525 132.501 167.225 130.785 167.814 129.324C172.465 129.14 175.179 129.023 175.181 129C175.182 128.977 172.483 129.054 167.864 129.201C168.975 126.438 169.685 124.626 169.649 124.61C169.613 124.595 168.834 126.416 167.664 129.206L161.051 129.426C162.371 126.771 163.218 125.05 163.184 125.029C163.151 125.008 162.227 126.754 160.848 129.432L154.869 129.634C156.506 126.54 157.58 124.464 157.548 124.447C157.515 124.431 156.354 126.512 154.653 129.644L147.862 129.88C149.686 126.641 150.896 124.447 150.857 124.423C150.819 124.4 149.523 126.608 147.635 129.885L140.841 130.126C142.757 127.05 144.021 124.982 143.986 124.957C143.952 124.932 142.596 127.021 140.611 130.132L133.432 130.401C135.352 127.324 136.614 125.251 136.581 125.231C136.547 125.21 135.189 127.291 133.198 130.412L131.216 130.481L126.742 130.645C128.555 127.727 129.739 125.787 129.706 125.766C129.672 125.745 128.402 127.695 126.515 130.65L120.049 130.881C121.759 128.13 122.866 126.317 122.833 126.296C122.8 126.275 121.615 128.099 119.817 130.896L113.29 131.133C115.089 128.242 116.241 126.326 116.232 126.297C116.223 126.269 114.936 128.21 113.069 131.141L106.602 131.399C108.301 128.669 109.395 126.869 109.365 126.847C109.336 126.825 108.143 128.639 106.381 131.406L99.681 131.662C101.264 129.117 102.269 127.461 102.241 127.444C102.213 127.426 101.121 129.091 99.4691 131.671L93.5357 131.904C94.0744 131.062 94.5703 130.284 94.9974 129.598C95.618 128.606 96.113 127.796 96.4493 127.233L96.8299 126.585C96.8777 126.51 96.9186 126.431 96.9522 126.349C96.8913 126.414 96.8373 126.485 96.7912 126.561L96.3771 127.189L94.876 129.511L93.3063 131.914C89.4631 132.066 87.258 132.165 87.2603 132.187C87.2627 132.208 89.4349 132.147 93.2304 132.027C92.2752 133.475 91.1809 135.118 90.0043 136.855C87.2421 136.96 85.6928 137.026 85.6939 137.044C85.695 137.061 87.213 137.01 89.9408 136.951L89.8221 137.128C88.6634 138.836 87.5537 140.431 86.5613 141.846C83.4337 141.941 81.6688 142.004 81.6658 142.022C81.6628 142.041 83.407 142.012 86.4909 141.948C85.7948 142.943 85.1526 143.853 84.5987 144.632L82.992 146.889L82.5486 147.495C82.4964 147.566 82.4497 147.64 82.409 147.718C82.409 147.718 82.4788 147.656 82.5833 147.52L83.0481 146.925C83.4484 146.409 84.0182 145.652 84.7122 144.708C85.3042 143.908 85.9847 142.963 86.7218 141.929L93.053 141.794C90.6041 145.7 88.906 148.475 88.9202 148.519C88.9344 148.564 90.7719 145.75 93.285 141.792L99.9253 141.631C97.6242 145.312 96.0424 147.888 96.0974 147.906C96.1524 147.925 97.8166 145.34 100.186 141.62L106.579 141.47C104.405 144.945 102.934 147.348 102.973 147.371C103.011 147.395 104.577 144.98 106.818 141.462L113.244 141.315C111.018 144.882 109.503 147.357 109.538 147.381C109.572 147.406 111.191 144.917 113.488 141.309L119.9 141.148C117.794 144.499 116.39 146.817 116.425 146.842C116.46 146.867 117.971 144.564 120.136 141.145L126.539 140.983C124.57 144.143 123.266 146.282 123.304 146.306C123.343 146.329 124.737 144.175 126.778 140.975L127.414 140.961L133.91 140.797C131.964 143.918 130.676 146.025 130.71 146.046C130.743 146.066 132.126 143.951 134.14 140.791L141.55 140.601C139.737 143.818 138.535 145.997 138.573 146.016C138.61 146.036 139.899 143.847 141.775 140.592L148.903 140.402C147.022 143.954 145.755 146.395 145.794 146.418C145.832 146.442 147.187 143.982 149.13 140.397L155.36 140.213C153.571 143.772 152.349 146.243 152.395 146.26C152.441 146.277 153.74 143.799 155.587 140.209L163.235 139.997C161.676 143.832 160.618 146.52 160.659 146.538C160.701 146.556 161.85 143.857 163.457 139.989C169.503 139.846 173.131 139.749 173.119 139.708C173.106 139.667 169.531 139.748 163.503 139.881C164.046 138.573 164.638 137.137 165.257 135.631L165.715 134.493ZM160.972 129.598L167.602 129.347C166.994 130.805 166.28 132.52 165.517 134.377L158.429 134.59C159.391 132.742 160.249 131.044 160.972 129.598ZM154.784 129.831L160.772 129.603C160.03 131.046 159.159 132.744 158.221 134.584L152.141 134.765C153.097 132.982 154 131.296 154.784 129.831ZM147.755 130.093L154.562 129.839C153.769 131.302 152.872 132.977 151.9 134.779L144.978 134.998C145.974 133.229 146.918 131.561 147.743 130.097L147.755 130.093ZM140.716 130.353L147.525 130.103C146.682 131.564 145.729 133.23 144.72 135.017L137.661 135.239C138.758 133.465 139.803 131.805 140.704 130.357L140.716 130.353ZM133.3 130.621L140.482 130.361C139.558 131.807 138.505 133.469 137.391 135.235L130.263 135.466C131.355 133.715 132.391 132.072 133.288 130.625L133.3 130.621ZM126.609 130.861L131.235 130.694L133.066 130.629C132.148 132.069 131.101 133.72 129.993 135.475L129.772 135.482L123.574 135.687C124.682 133.931 125.711 132.291 126.597 130.865L126.609 130.861ZM119.909 131.104L126.367 130.875L123.309 135.695L116.899 135.908C118.01 134.147 119.034 132.508 119.909 131.104ZM113.168 131.342L119.684 131.113C118.787 132.519 117.749 134.154 116.634 135.916L110.164 136.135C111.265 134.387 112.286 132.753 113.168 131.342ZM106.482 131.571L112.937 131.348C112.042 132.758 111.003 134.393 109.898 136.143L103.486 136.362C104.595 134.611 105.614 132.969 106.482 131.571ZM99.5831 131.805L106.261 131.579C105.363 132.981 104.331 134.609 103.216 136.371L96.5799 136.603C97.6992 134.826 98.7246 133.191 99.5831 131.805ZM93.4559 132.005L99.3607 131.795C98.459 133.185 97.4364 134.815 96.313 136.593L90.2679 136.812C91.4429 135.098 92.5237 133.454 93.4559 132.005ZM93.1483 141.643L86.8003 141.824C87.7868 140.447 88.8702 138.896 89.9945 137.234L90.2014 136.927L96.2203 136.752C95.9826 137.132 95.7421 137.517 95.4935 137.904L93.1483 141.643ZM100.021 141.453L93.4006 141.635L95.6845 138.027C95.9594 137.595 96.2274 137.171 96.4874 136.748L103.103 136.55L102.62 137.316L100.021 141.453ZM106.674 141.275L100.269 141.446C101.059 140.212 101.913 138.855 102.814 137.433L103.373 136.541L109.773 136.344L109.5 136.779C108.479 138.386 107.525 139.909 106.67 141.276L106.674 141.275ZM113.378 141.102L106.918 141.269C107.763 139.941 108.714 138.464 109.684 136.895L110.039 136.336L116.501 136.133L116.09 136.786L113.378 141.102ZM120.032 140.928L113.622 141.097C114.436 139.81 115.338 138.393 116.278 136.897L116.767 136.125L123.166 135.923L122.963 136.243C121.903 137.924 120.904 139.516 120.02 140.932L120.032 140.928ZM126.687 140.757L120.276 140.922C121.155 139.544 122.136 137.994 123.169 136.356L123.452 135.909L129.781 135.694L129.852 135.694C128.682 137.536 127.604 139.26 126.667 140.764L126.687 140.757ZM134.049 140.573L127.394 140.744L126.91 140.754C127.845 139.286 128.906 137.608 130.032 135.825L130.116 135.695L137.243 135.461C136.069 137.317 134.976 139.064 134.033 140.579L134.049 140.573ZM141.677 140.395L134.287 140.574C135.234 139.089 136.313 137.383 137.457 135.572L137.528 135.455L144.61 135.221C143.517 137.093 142.518 138.854 141.654 140.393L141.677 140.395ZM148.993 140.234L141.89 140.403C142.753 138.891 143.759 137.151 144.814 135.3L144.856 135.233L151.795 135L151.575 135.405C150.633 137.121 149.764 138.756 148.993 140.234ZM155.44 140.085L149.224 140.229C149.998 138.803 150.857 137.207 151.758 135.517L152.036 134.982L158.133 134.76L157.7 135.608C156.876 137.202 156.118 138.708 155.434 140.065L155.44 140.085ZM163.283 139.906L155.671 140.079C156.352 138.754 157.104 137.286 157.876 135.74L158.364 134.781L165.468 134.531L165.034 135.563C164.416 137.087 163.808 138.554 163.276 139.885L163.283 139.906Z" fill="#F5F5F5"/>
<path d="M91.8164 125.117L92.22 125.092L93.4011 125.023L97.9862 124.77L115.213 123.829L175.363 120.605L175.264 120.717C173.246 104.596 171.025 86.8712 168.697 68.2722L168.669 68.1827L168.793 68.2777L81.3026 77.9521L81.3743 77.8534C84.5908 92.3782 87.2065 104.186 89.0168 112.362C89.9191 116.455 90.6194 119.641 91.1113 121.803C91.3458 122.882 91.5275 123.71 91.6499 124.267C91.7723 124.823 91.826 125.105 91.826 125.105C91.826 125.105 91.7411 124.837 91.6296 124.273C91.5181 123.709 91.3146 122.897 91.0732 121.824C90.5867 119.665 89.8714 116.488 88.9554 112.408C87.1197 104.222 84.4744 92.4061 81.2176 77.8672L81.1893 77.7778L81.2787 77.7495L168.772 68.0562L168.88 68.0443L168.913 68.15L168.94 68.2354C171.252 86.8395 173.478 104.563 175.491 120.685L175.525 120.791L175.414 120.795L115.155 123.941L97.949 124.822L93.3831 125.051L92.2104 125.104L91.8164 125.117Z" fill="#263238"/>
</g>
<defs>
<clipPath id="clip0_2138_200">
<rect width="440" height="476" fill="white"/>
</clipPath>
</defs>
</svg>
