<svg width="113" height="24" viewBox="0 0 113 24" fill="none" xmlns="http://www.w3.org/2000/svg">
<path d="M19.4 15.6C19.4 16.1523 19.8477 16.6 20.4 16.6C20.9523 16.6 21.4 16.1523 21.4 15.6H19.4ZM2.60002 15.6C2.60002 16.1523 3.04774 16.6 3.60002 16.6C4.15231 16.6 4.60002 16.1523 4.60002 15.6H2.60002ZM5.70002 5.20001H18.3V3.20001H5.70002V5.20001ZM19.4 6.23078V15.6H21.4V6.23078H19.4ZM4.60002 15.6V6.23078H2.60002V15.6H4.60002ZM18.3 5.20001C18.9394 5.20001 19.4 5.69284 19.4 6.23078H21.4C21.4 4.5256 19.9802 3.20001 18.3 3.20001V5.20001ZM5.70002 3.20001C4.0198 3.20001 2.60002 4.5256 2.60002 6.23078H4.60002C4.60002 5.69284 5.06065 5.20001 5.70002 5.20001V3.20001ZM3.60002 17.2H20.4V15.2H3.60002V17.2ZM20.6 17.4V18.6H22.6V17.4H20.6ZM20.4 18.8H3.60002V20.8H20.4V18.8ZM3.40002 18.6V17.4H1.40002V18.6H3.40002ZM3.60002 18.8C3.48957 18.8 3.40002 18.7105 3.40002 18.6H1.40002C1.40002 19.815 2.385 20.8 3.60002 20.8V18.8ZM20.6 18.6C20.6 18.7105 20.5105 18.8 20.4 18.8V20.8C21.615 20.8 22.6 19.815 22.6 18.6H20.6ZM20.4 17.2C20.5105 17.2 20.6 17.2896 20.6 17.4H22.6C22.6 16.185 21.615 15.2 20.4 15.2V17.2ZM3.60002 15.2C2.385 15.2 1.40002 16.185 1.40002 17.4H3.40002C3.40002 17.2896 3.48957 17.2 3.60002 17.2V15.2Z" fill="#151515"/>
<path d="M34.88 18.168C34.1333 18.168 33.438 18.0327 32.794 17.762C32.1593 17.4913 31.604 17.1133 31.128 16.628C30.652 16.1427 30.2787 15.5733 30.008 14.92C29.7467 14.2667 29.616 13.5527 29.616 12.778C29.616 12.0033 29.7467 11.2893 30.008 10.636C30.2693 9.97333 30.638 9.404 31.114 8.928C31.59 8.44267 32.1453 8.06933 32.78 7.808C33.424 7.53733 34.124 7.402 34.88 7.402C35.636 7.402 36.3127 7.528 36.91 7.78C37.5167 8.032 38.03 8.368 38.45 8.788C38.87 9.208 39.1687 9.67467 39.346 10.188L37.428 11.112C37.2507 10.608 36.938 10.1927 36.49 9.866C36.0513 9.53 35.5147 9.362 34.88 9.362C34.264 9.362 33.7227 9.50667 33.256 9.796C32.7893 10.0853 32.4253 10.4867 32.164 11C31.912 11.504 31.786 12.0967 31.786 12.778C31.786 13.4593 31.912 14.0567 32.164 14.57C32.4253 15.0833 32.7893 15.4847 33.256 15.774C33.7227 16.0633 34.264 16.208 34.88 16.208C35.5147 16.208 36.0513 16.0447 36.49 15.718C36.938 15.382 37.2507 14.962 37.428 14.458L39.346 15.382C39.1687 15.8953 38.87 16.362 38.45 16.782C38.03 17.202 37.5167 17.538 36.91 17.79C36.3127 18.042 35.636 18.168 34.88 18.168ZM43.1837 18.168C42.6331 18.168 42.1571 18.0793 41.7557 17.902C41.3544 17.7247 41.0464 17.4727 40.8317 17.146C40.6171 16.81 40.5097 16.4133 40.5097 15.956C40.5097 15.5267 40.6077 15.1487 40.8037 14.822C40.9997 14.486 41.2984 14.206 41.6997 13.982C42.1104 13.758 42.6191 13.5993 43.2257 13.506L45.5637 13.128V14.668L43.6037 15.018C43.3051 15.074 43.0764 15.172 42.9177 15.312C42.7591 15.4427 42.6797 15.634 42.6797 15.886C42.6797 16.1193 42.7684 16.3013 42.9457 16.432C43.1231 16.5627 43.3424 16.628 43.6037 16.628C43.9491 16.628 44.2524 16.5533 44.5137 16.404C44.7751 16.2547 44.9757 16.054 45.1157 15.802C45.2651 15.5407 45.3397 15.256 45.3397 14.948V12.96C45.3397 12.6707 45.2231 12.428 44.9897 12.232C44.7657 12.036 44.4577 11.938 44.0657 11.938C43.6924 11.938 43.3611 12.0407 43.0717 12.246C42.7917 12.4513 42.5864 12.722 42.4557 13.058L40.7757 12.26C40.9251 11.8307 41.1631 11.462 41.4897 11.154C41.8164 10.846 42.2084 10.608 42.6657 10.44C43.1231 10.272 43.6224 10.188 44.1637 10.188C44.8077 10.188 45.3771 10.3047 45.8717 10.538C46.3664 10.7713 46.7491 11.098 47.0197 11.518C47.2997 11.9287 47.4397 12.4093 47.4397 12.96V18H45.4797V16.768L45.9557 16.684C45.7317 17.02 45.4844 17.3 45.2137 17.524C44.9431 17.7387 44.6397 17.8973 44.3037 18C43.9677 18.112 43.5944 18.168 43.1837 18.168ZM49.3498 18V10.356H51.3098V12.19L51.1698 11.924C51.3378 11.28 51.6132 10.846 51.9958 10.622C52.3878 10.3887 52.8498 10.272 53.3818 10.272H53.8298V12.092H53.1718C52.6585 12.092 52.2432 12.2507 51.9258 12.568C51.6085 12.876 51.4498 13.3147 51.4498 13.884V18H49.3498ZM55.1202 18V10.356H57.2202V18H55.1202ZM55.1202 9.67V7.57H57.2202V9.67H55.1202ZM62.1666 18V7.57H64.3366V16.11H68.7466V18H62.1666ZM72.4048 18.168C71.8542 18.168 71.3782 18.0793 70.9768 17.902C70.5755 17.7247 70.2675 17.4727 70.0528 17.146C69.8382 16.81 69.7308 16.4133 69.7308 15.956C69.7308 15.5267 69.8288 15.1487 70.0248 14.822C70.2208 14.486 70.5195 14.206 70.9208 13.982C71.3315 13.758 71.8402 13.5993 72.4468 13.506L74.7848 13.128V14.668L72.8248 15.018C72.5262 15.074 72.2975 15.172 72.1388 15.312C71.9802 15.4427 71.9008 15.634 71.9008 15.886C71.9008 16.1193 71.9895 16.3013 72.1668 16.432C72.3442 16.5627 72.5635 16.628 72.8248 16.628C73.1702 16.628 73.4735 16.5533 73.7348 16.404C73.9962 16.2547 74.1968 16.054 74.3368 15.802C74.4862 15.5407 74.5608 15.256 74.5608 14.948V12.96C74.5608 12.6707 74.4442 12.428 74.2108 12.232C73.9868 12.036 73.6788 11.938 73.2868 11.938C72.9135 11.938 72.5822 12.0407 72.2928 12.246C72.0128 12.4513 71.8075 12.722 71.6768 13.058L69.9968 12.26C70.1462 11.8307 70.3842 11.462 70.7108 11.154C71.0375 10.846 71.4295 10.608 71.8868 10.44C72.3442 10.272 72.8435 10.188 73.3848 10.188C74.0288 10.188 74.5982 10.3047 75.0928 10.538C75.5875 10.7713 75.9702 11.098 76.2408 11.518C76.5208 11.9287 76.6608 12.4093 76.6608 12.96V18H74.7008V16.768L75.1768 16.684C74.9528 17.02 74.7055 17.3 74.4348 17.524C74.1642 17.7387 73.8608 17.8973 73.5248 18C73.1888 18.112 72.8155 18.168 72.4048 18.168ZM78.5709 20.8V10.356H80.5309V11.812L80.3489 11.392C80.6009 11.0093 80.9416 10.7153 81.3709 10.51C81.8096 10.2953 82.3089 10.188 82.8689 10.188C83.5969 10.188 84.2549 10.3653 84.8429 10.72C85.4309 11.0747 85.8976 11.5553 86.2429 12.162C86.5883 12.7593 86.7609 13.4313 86.7609 14.178C86.7609 14.9153 86.5883 15.5873 86.2429 16.194C85.9069 16.8007 85.4449 17.2813 84.8569 17.636C84.2689 17.9907 83.6016 18.168 82.8549 18.168C82.3323 18.168 81.8469 18.0747 81.3989 17.888C80.9603 17.692 80.6056 17.4073 80.3349 17.034L80.6709 16.6V20.8H78.5709ZM82.6029 16.278C82.9949 16.278 83.3403 16.1893 83.6389 16.012C83.9376 15.8347 84.1709 15.5873 84.3389 15.27C84.5069 14.9527 84.5909 14.5887 84.5909 14.178C84.5909 13.7673 84.5069 13.408 84.3389 13.1C84.1709 12.7827 83.9376 12.5353 83.6389 12.358C83.3403 12.1713 82.9949 12.078 82.6029 12.078C82.2296 12.078 81.8936 12.1667 81.5949 12.344C81.3056 12.5213 81.0769 12.7687 80.9089 13.086C80.7503 13.4033 80.6709 13.7673 80.6709 14.178C80.6709 14.5887 80.7503 14.9527 80.9089 15.27C81.0769 15.5873 81.3056 15.8347 81.5949 16.012C81.8936 16.1893 82.2296 16.278 82.6029 16.278ZM91.9061 18.084C90.9821 18.084 90.2635 17.8367 89.7501 17.342C89.2461 16.838 88.9941 16.138 88.9941 15.242V12.176H87.7061V10.356H87.7761C88.1681 10.356 88.4668 10.258 88.6721 10.062C88.8868 9.866 88.9941 9.572 88.9941 9.18V8.62H91.0941V10.356H92.8861V12.176H91.0941V15.102C91.0941 15.3633 91.1408 15.5827 91.2341 15.76C91.3275 15.928 91.4721 16.054 91.6681 16.138C91.8641 16.222 92.1068 16.264 92.3961 16.264C92.4615 16.264 92.5361 16.2593 92.6201 16.25C92.7041 16.2407 92.7928 16.2313 92.8861 16.222V18C92.7461 18.0187 92.5875 18.0373 92.4101 18.056C92.2328 18.0747 92.0648 18.084 91.9061 18.084ZM98.2807 18.168C97.5247 18.168 96.8341 17.9953 96.2087 17.65C95.5927 17.3047 95.0981 16.8333 94.7247 16.236C94.3607 15.6293 94.1787 14.9433 94.1787 14.178C94.1787 13.4033 94.3607 12.7173 94.7247 12.12C95.0981 11.5227 95.5927 11.0513 96.2087 10.706C96.8341 10.3607 97.5247 10.188 98.2807 10.188C99.0367 10.188 99.7227 10.3607 100.339 10.706C100.955 11.0513 101.445 11.5227 101.809 12.12C102.182 12.7173 102.369 13.4033 102.369 14.178C102.369 14.9433 102.182 15.6293 101.809 16.236C101.445 16.8333 100.955 17.3047 100.339 17.65C99.7227 17.9953 99.0367 18.168 98.2807 18.168ZM98.2807 16.278C98.6634 16.278 98.9947 16.1893 99.2747 16.012C99.5641 15.8347 99.7881 15.5873 99.9467 15.27C100.115 14.9527 100.199 14.5887 100.199 14.178C100.199 13.7673 100.115 13.408 99.9467 13.1C99.7881 12.7827 99.5641 12.5353 99.2747 12.358C98.9947 12.1713 98.6634 12.078 98.2807 12.078C97.8981 12.078 97.5621 12.1713 97.2727 12.358C96.9834 12.5353 96.7547 12.7827 96.5867 13.1C96.4281 13.408 96.3487 13.7673 96.3487 14.178C96.3487 14.5887 96.4281 14.9527 96.5867 15.27C96.7547 15.5873 96.9834 15.8347 97.2727 16.012C97.5621 16.1893 97.8981 16.278 98.2807 16.278ZM103.976 20.8V10.356H105.936V11.812L105.754 11.392C106.006 11.0093 106.347 10.7153 106.776 10.51C107.215 10.2953 107.714 10.188 108.274 10.188C109.002 10.188 109.66 10.3653 110.248 10.72C110.836 11.0747 111.303 11.5553 111.648 12.162C111.993 12.7593 112.166 13.4313 112.166 14.178C112.166 14.9153 111.993 15.5873 111.648 16.194C111.312 16.8007 110.85 17.2813 110.262 17.636C109.674 17.9907 109.007 18.168 108.26 18.168C107.737 18.168 107.252 18.0747 106.804 17.888C106.365 17.692 106.011 17.4073 105.74 17.034L106.076 16.6V20.8H103.976ZM108.008 16.278C108.4 16.278 108.745 16.1893 109.044 16.012C109.343 15.8347 109.576 15.5873 109.744 15.27C109.912 14.9527 109.996 14.5887 109.996 14.178C109.996 13.7673 109.912 13.408 109.744 13.1C109.576 12.7827 109.343 12.5353 109.044 12.358C108.745 12.1713 108.4 12.078 108.008 12.078C107.635 12.078 107.299 12.1667 107 12.344C106.711 12.5213 106.482 12.7687 106.314 13.086C106.155 13.4033 106.076 13.7673 106.076 14.178C106.076 14.5887 106.155 14.9527 106.314 15.27C106.482 15.5873 106.711 15.8347 107 16.012C107.299 16.1893 107.635 16.278 108.008 16.278Z" fill="#151515"/>
</svg>
